<svg width="640" height="640" viewBox="0 0 640 640" xmlns="http://www.w3.org/2000/svg">
  <defs>
    <radialGradient id="g0" cx="35%" cy="75%" r="80%">
      <stop offset="0" stop-color="#ff5f7a" stop-opacity="0.45"/>
      <stop offset="0.55" stop-color="#4fe3c2" stop-opacity="0.22"/>
      <stop offset="1" stop-color="#0b1220" stop-opacity="0"/>
    </radialGradient>
    <linearGradient id="g1" x1="0" x2="1" y1="0" y2="1">
      <stop offset="0" stop-color="#e7eefc" stop-opacity="0.20"/>
      <stop offset="1" stop-color="#e7eefc" stop-opacity="0.06"/>
    </linearGradient>
  </defs>
  <rect x="18" y="18" width="604" height="604" rx="140" fill="url(#g0)" stroke="rgba(231,238,252,0.18)"/>
  <path d="M188 476c18-70 74-110 132-110s114 40 132 110c8 30-10 56-40 56H228c-30 0-48-26-40-56z" fill="url(#g1)" stroke="rgba(231,238,252,0.14)"/>
  <path d="M320 146c54 0 98 44 98 98s-44 98-98 98-98-44-98-98 44-98 98-98z" fill="rgba(231,238,252,0.13)" stroke="rgba(231,238,252,0.18)"/>
  <path d="M256 252c18-22 40-34 64-34s46 12 64 34" fill="none" stroke="rgba(79,227,194,0.50)" stroke-width="10" stroke-linecap="round"/>
  <path d="M238 332c28-16 54-22 82-22s54 6 82 22" fill="none" stroke="rgba(255,95,122,0.46)" stroke-width="10" stroke-linecap="round"/>
</svg>

