<svg xmlns="http://www.w3.org/2000/svg" width="1200" height="700" viewBox="0 0 1200 700">
  <defs>
    <linearGradient id="bg" x1="0" y1="0" x2="1" y2="1">
      <stop offset="0" stop-color="#0f172a"/>
      <stop offset="1" stop-color="#1e293b"/>
    </linearGradient>
    <radialGradient id="glow" cx="70%" cy="25%" r="70%">
      <stop offset="0" stop-color="#60a5fa" stop-opacity="0.30"/>
      <stop offset="1" stop-color="#60a5fa" stop-opacity="0"/>
    </radialGradient>
  </defs>
  <rect width="1200" height="700" fill="url(#bg)"/>
  <rect width="1200" height="700" fill="url(#glow)"/>
  <rect x="90" y="95" width="1020" height="510" rx="22" fill="rgba(15,23,42,0.55)" stroke="rgba(148,163,184,0.25)"/>
  <g font-family="ui-sans-serif, system-ui, -apple-system, Segoe UI, Roboto, Arial">
    <text x="140" y="170" font-size="40" fill="#f1f5f9" font-weight="900">Candlestick Basics</text>
    <text x="140" y="210" font-size="18" fill="#94a3b8" font-weight="700">Green up candles and red down candles (placeholder).</text>
  </g>
  <g transform="translate(170,260)">
    <rect x="0" y="0" width="860" height="300" rx="18" fill="rgba(15,23,42,0.35)" stroke="rgba(148,163,184,0.25)"/>
    <g transform="translate(40,40)">
      <g stroke-linecap="round">
        <g stroke="#34d399" fill="#34d399">
          <line x1="30" y1="30" x2="30" y2="160" stroke-width="4"/>
          <rect x="18" y="70" width="24" height="60" rx="3"/>
          <line x1="90" y1="15" x2="90" y2="180" stroke-width="4"/>
          <rect x="78" y="55" width="24" height="90" rx="3"/>
          <line x1="150" y1="40" x2="150" y2="170" stroke-width="4"/>
          <rect x="138" y="85" width="24" height="55" rx="3"/>
        </g>
        <g stroke="#ff5f7a" fill="#ff5f7a">
          <line x1="220" y1="20" x2="220" y2="190" stroke-width="4"/>
          <rect x="208" y="60" width="24" height="90" rx="3"/>
          <line x1="280" y1="30" x2="280" y2="175" stroke-width="4"/>
          <rect x="268" y="75" width="24" height="65" rx="3"/>
          <line x1="340" y1="10" x2="340" y2="200" stroke-width="4"/>
          <rect x="328" y="55" width="24" height="100" rx="3"/>
        </g>
        <g stroke="#34d399" fill="#34d399">
          <line x1="410" y1="25" x2="410" y2="185" stroke-width="4"/>
          <rect x="398" y="70" width="24" height="80" rx="3"/>
          <line x1="470" y1="10" x2="470" y2="200" stroke-width="4"/>
          <rect x="458" y="45" width="24" height="110" rx="3"/>
        </g>
      </g>
    </g>
  </g>
</svg>

