<svg xmlns="http://www.w3.org/2000/svg" width="1200" height="700" viewBox="0 0 1200 700">
  <defs>
    <linearGradient id="bg" x1="0" y1="0" x2="1" y2="1">
      <stop offset="0" stop-color="#0f172a"/>
      <stop offset="1" stop-color="#1e293b"/>
    </linearGradient>
    <radialGradient id="glow" cx="30%" cy="25%" r="70%">
      <stop offset="0" stop-color="#34d399" stop-opacity="0.26"/>
      <stop offset="1" stop-color="#34d399" stop-opacity="0"/>
    </radialGradient>
  </defs>
  <rect width="1200" height="700" fill="url(#bg)"/>
  <rect width="1200" height="700" fill="url(#glow)"/>
  <rect x="90" y="95" width="1020" height="510" rx="22" fill="rgba(15,23,42,0.55)" stroke="rgba(148,163,184,0.25)"/>
  <g font-family="ui-sans-serif, system-ui, -apple-system, Segoe UI, Roboto, Arial">
    <text x="140" y="170" font-size="40" fill="#f1f5f9" font-weight="900">FX Focus</text>
    <text x="140" y="210" font-size="18" fill="#94a3b8" font-weight="700">EUR/USD structure and simple levels (placeholder).</text>
  </g>
  <g opacity="0.18" stroke="#94a3b8">
    <path d="M140 290H1060M140 360H1060M140 430H1060M140 500H1060"/>
  </g>
  <path d="M160 510C260 490 310 430 390 420C480 410 520 340 610 330C710 320 780 380 860 360C950 340 1010 300 1060 280"
    fill="none" stroke="#34d399" stroke-width="7" stroke-linecap="round"/>
  <path d="M160 510C260 490 310 430 390 420C480 410 520 340 610 330C710 320 780 380 860 360C950 340 1010 300 1060 280"
    fill="none" stroke="rgba(52,211,153,0.20)" stroke-width="18" stroke-linecap="round"/>
</svg>

