<svg xmlns="http://www.w3.org/2000/svg" width="1200" height="700" viewBox="0 0 1200 700">
  <defs>
    <linearGradient id="bg" x1="0" y1="0" x2="1" y2="1">
      <stop offset="0" stop-color="#0f172a"/>
      <stop offset="1" stop-color="#1e293b"/>
    </linearGradient>
    <radialGradient id="glow" cx="40%" cy="25%" r="70%">
      <stop offset="0" stop-color="#34d399" stop-opacity="0.32"/>
      <stop offset="1" stop-color="#34d399" stop-opacity="0"/>
    </radialGradient>
  </defs>
  <rect width="1200" height="700" fill="url(#bg)"/>
  <rect width="1200" height="700" fill="url(#glow)"/>
  <rect x="90" y="95" width="1020" height="510" rx="22" fill="rgba(15,23,42,0.55)" stroke="rgba(148,163,184,0.25)"/>
  <g font-family="ui-sans-serif, system-ui, -apple-system, Segoe UI, Roboto, Arial">
    <text x="140" y="170" font-size="40" fill="#f1f5f9" font-weight="900">Risk Checklist</text>
    <text x="140" y="210" font-size="18" fill="#94a3b8" font-weight="700">A clean template you can replace with your own images.</text>
  </g>
  <g transform="translate(140,260)" fill="none" stroke="rgba(148,163,184,0.35)" stroke-width="2">
    <rect x="0" y="0" width="920" height="60" rx="16" fill="rgba(15,23,42,0.35)"/>
    <rect x="0" y="80" width="920" height="60" rx="16" fill="rgba(15,23,42,0.35)"/>
    <rect x="0" y="160" width="920" height="60" rx="16" fill="rgba(15,23,42,0.35)"/>
    <rect x="0" y="240" width="920" height="60" rx="16" fill="rgba(15,23,42,0.35)"/>
  </g>
  <g transform="translate(175,297)" font-family="ui-sans-serif, system-ui, -apple-system, Segoe UI, Roboto, Arial" font-weight="900" font-size="18" fill="#f1f5f9">
    <text x="0" y="0">Position size defined</text>
    <text x="0" y="80">Stop level selected</text>
    <text x="0" y="160">Entry trigger confirmed</text>
    <text x="0" y="240">Max daily loss respected</text>
  </g>
  <g transform="translate(955,283)" stroke="#34d399" stroke-width="6" stroke-linecap="round">
    <path d="M0 15l12 12 24-28"/>
    <path d="M0 95l12 12 24-28"/>
    <path d="M0 175l12 12 24-28"/>
    <path d="M0 255l12 12 24-28"/>
  </g>
</svg>

