<svg xmlns="http://www.w3.org/2000/svg" width="1200" height="700" viewBox="0 0 1200 700">
  <defs>
    <linearGradient id="bg" x1="0" y1="0" x2="1" y2="1">
      <stop offset="0" stop-color="#0f172a"/>
      <stop offset="1" stop-color="#1e293b"/>
    </linearGradient>
    <radialGradient id="glow" cx="55%" cy="20%" r="70%">
      <stop offset="0" stop-color="#fbbf24" stop-opacity="0.20"/>
      <stop offset="1" stop-color="#fbbf24" stop-opacity="0"/>
    </radialGradient>
  </defs>
  <rect width="1200" height="700" fill="url(#bg)"/>
  <rect width="1200" height="700" fill="url(#glow)"/>
  <rect x="90" y="95" width="1020" height="510" rx="22" fill="rgba(15,23,42,0.55)" stroke="rgba(148,163,184,0.25)"/>
  <g font-family="ui-sans-serif, system-ui, -apple-system, Segoe UI, Roboto, Arial">
    <text x="140" y="170" font-size="40" fill="#f1f5f9" font-weight="900">Join The Winners Circle</text>
    <text x="140" y="210" font-size="18" fill="#94a3b8" font-weight="700">Community updates, highlights, and weekly notes.</text>
  </g>
  <g transform="translate(170,255)">
    <circle cx="350" cy="190" r="150" fill="rgba(251,191,36,0.14)" stroke="rgba(251,191,36,0.28)"/>
    <circle cx="350" cy="190" r="92" fill="rgba(96,165,250,0.10)" stroke="rgba(96,165,250,0.22)"/>
    <path d="M350 88l26 70h74l-60 44 22 70-62-44-62 44 22-70-60-44h74z" fill="rgba(251,191,36,0.86)" />
    <path d="M560 140c70 25 120 70 150 140" fill="none" stroke="#34d399" stroke-width="8" stroke-linecap="round"/>
    <path d="M560 260c60-10 120 10 170 60" fill="none" stroke="#60a5fa" stroke-width="8" stroke-linecap="round"/>
  </g>
</svg>

